<?xml version="1.0" encoding="UTF-8"?>
<svg version="1.1" xmlns="http://www.w3.org/2000/svg" width="200" height="200">
<path d="M0 0 C66 0 132 0 200 0 C200 66 200 132 200 200 C134 200 68 200 0 200 C0 134 0 68 0 0 Z " fill="#1C1D1C" transform="translate(0,0)"/>
<path d="M0 0 C66 0 132 0 200 0 C200 17.16 200 34.32 200 52 C193.85965267 53.8421042 188.98429442 55.27862287 182.875 56.1875 C172.47478841 57.93898001 162.64964351 61.60420763 152.72021484 65.06591797 C150.43279953 65.85138296 148.1418519 66.6004023 145.83203125 67.31640625 C111.7113034 77.99541267 79.40328843 97.26932357 52 120 C51.03578125 120.76183594 50.0715625 121.52367188 49.078125 122.30859375 C41.34761183 128.56710506 34.29570422 135.49287509 27.25 142.5 C26.51512863 143.22697083 26.51512863 143.22697083 25.76541138 143.96862793 C17.07942472 152.58236633 9.25220804 161.71430052 2.09375 171.63671875 C1.55234375 172.31154297 1.55234375 172.31154297 1 173 C0.67 173 0.34 173 0 173 C0 115.91 0 58.82 0 0 Z " fill="#DE6728" transform="translate(0,0)"/>
<path d="M0 0 C0 8.25 0 16.5 0 25 C-6.14034733 26.8421042 -11.01570558 28.27862287 -17.125 29.1875 C-27.52521159 30.93898001 -37.35035649 34.60420763 -47.27978516 38.06591797 C-49.56720047 38.85138296 -51.8581481 39.6004023 -54.16796875 40.31640625 C-88.2886966 50.99541267 -120.59671157 70.26932357 -148 93 C-148.96421875 93.76183594 -149.9284375 94.52367188 -150.921875 95.30859375 C-158.65238817 101.56710506 -165.70429578 108.49287509 -172.75 115.5 C-173.48487137 116.22697083 -173.48487137 116.22697083 -174.23458862 116.96862793 C-182.92057528 125.58236633 -190.74779196 134.71430052 -197.90625 144.63671875 C-198.44765625 145.31154297 -198.44765625 145.31154297 -199 146 C-199.33 146 -199.66 146 -200 146 C-200.23265688 138.20261823 -200.40985268 130.40606257 -200.51812172 122.60607243 C-200.57011465 118.98311561 -200.64050187 115.36254819 -200.75439453 111.7409668 C-200.86381163 108.23940905 -200.92299052 104.74013394 -200.94877243 101.2369976 C-200.97599315 99.26392529 -201.05394659 97.29176093 -201.13296509 95.32008362 C-201.13845014 86.45619825 -201.13845014 86.45619825 -197.82723999 82.22080994 C-195.31708998 79.94433175 -192.76572563 77.95311552 -190 76 C-188.85122834 75.03214977 -187.71006875 74.0549568 -186.5859375 73.05859375 C-170.14953479 59.47903676 -151.98938852 47.68101856 -133 38 C-131.70425049 37.33774414 -131.70425049 37.33774414 -130.38232422 36.66210938 C-115.96769499 29.37195206 -101.25434182 23.29862234 -86 18 C-85.17580566 17.71286133 -84.35161133 17.42572266 -83.50244141 17.12988281 C-57.47874187 8.19484578 -27.63526008 0 0 0 Z " fill="#FDFDFC" transform="translate(200,27)"/>
</svg>
